<svg width="1440" height="80" viewBox="0 0 1440 80" fill="none" xmlns="http://www.w3.org/2000/svg">
<rect width="1440" height="80" fill="white"/>
<path fill-rule="evenodd" clip-rule="evenodd" d="M124.524 26.5188C122.816 26.6852 121.436 27.0295 120.092 27.6244C119.104 28.0619 117.919 28.7492 117.638 29.0481C117.359 29.3455 117.542 29.8318 117.958 29.8967C118.117 29.9215 118.214 29.8773 118.72 29.5503C119.4 29.1112 120.455 28.582 121.2 28.3061C121.733 28.1089 123.045 27.7545 123.243 27.7545C123.347 27.7545 123.347 27.7573 123.253 27.8996C122.398 29.1822 121.798 30.7688 121.309 33.0369L121.223 33.4388L120.87 33.5259C120.098 33.7164 119.512 34.2685 119.255 35.049C119.227 35.1353 119.055 35.1413 116.638 35.1413C115.215 35.1413 114.051 35.1262 114.051 35.1076C114.051 35.0132 114.662 33.8407 114.927 33.4265C115.305 32.8355 115.331 32.6304 115.058 32.3863C114.907 32.2511 114.85 32.2316 114.675 32.2551C114.403 32.2915 114.362 32.3308 114.016 32.8903C111.232 37.3917 111.339 43.1322 114.29 47.5305L114.514 47.8651L114.359 48.1659C114.145 48.5811 114.065 49.0778 114.142 49.5238C114.397 51.0121 115.999 51.8238 117.328 51.1382L117.626 50.9842L118.094 51.2874C120.239 52.6774 122.497 53.3912 125.047 53.4861C129.755 53.6612 134.196 51.3487 136.826 47.3522C138.319 45.0836 139.093 42.2903 138.991 39.5425C138.896 36.9917 138.182 34.7342 136.792 32.5894L136.489 32.1216L136.643 31.823C136.856 31.4098 136.935 30.9126 136.859 30.4672C136.604 28.9777 135.002 28.1673 133.671 28.854L133.37 29.0092L133.035 28.7847C131.356 27.6583 129.469 26.9339 127.4 26.6212C126.874 26.5418 124.98 26.4743 124.524 26.5188ZM125.962 27.6735C127.12 28.2125 128.277 30.8296 128.822 34.1388C128.881 34.5016 128.943 34.8758 128.959 34.9703L128.988 35.1423L126.263 35.1286L123.538 35.115L123.441 34.861C123.262 34.3879 122.928 34.0314 122.287 33.6264C122.256 33.6068 122.422 32.8405 122.634 32.0283C123.329 29.3557 124.487 27.5445 125.5 27.5445C125.602 27.5445 125.81 27.6026 125.962 27.6735ZM128.569 27.9326C128.956 28.0305 129.51 28.1986 129.801 28.3061C131.004 28.7517 132.724 29.7174 132.651 29.906C132.523 30.2341 132.455 30.6622 132.481 30.9731C132.609 32.5091 134.119 33.4184 135.589 32.8453C135.66 32.8176 135.746 32.9109 135.984 33.2766C136.272 33.7182 136.95 34.9935 136.95 35.0944C136.95 35.1213 135.481 35.1413 133.504 35.1413H130.058L129.914 34.2576C129.494 31.6836 128.797 29.5355 127.958 28.2294C127.837 28.0408 127.719 27.8568 127.697 27.8205C127.635 27.7168 127.8 27.7381 128.569 27.9326ZM135.215 29.8014C136.076 30.251 136.026 31.4677 135.13 31.8768C134.362 32.2276 133.45 31.5621 133.532 30.7105C133.588 30.1315 134.107 29.654 134.681 29.654C134.854 29.654 135.021 29.7001 135.215 29.8014ZM115.866 30.5721C115.669 30.7695 115.639 30.9395 115.762 31.1765C115.943 31.5276 116.485 31.5276 116.667 31.1765C116.807 30.9056 116.721 30.5977 116.47 30.4679C116.233 30.3454 116.063 30.3747 115.866 30.5721ZM121.896 34.6418C122.448 34.9168 122.694 35.5762 122.447 36.1175C122.036 37.0176 120.823 37.0633 120.367 36.1958C120.239 35.952 120.218 35.8592 120.236 35.6071C120.295 34.7655 121.148 34.2692 121.896 34.6418ZM119.255 36.2889C119.446 36.8683 119.89 37.3968 120.393 37.6422L120.693 37.789L120.663 39.2484C120.636 40.5536 120.674 41.8002 120.786 43.3328L120.82 43.7945H117.229H113.637L113.581 43.623C113.466 43.2665 113.262 42.3439 113.172 41.7742C113.102 41.3317 113.079 40.877 113.08 39.9691C113.082 38.5275 113.184 37.7756 113.557 36.4736L113.636 36.1966H116.431C119.045 36.1966 119.227 36.2026 119.255 36.2889ZM129.113 36.2626C129.222 36.5993 129.332 39.9934 129.275 41.269L129.236 42.1467L129.062 42.175C128.742 42.2269 128.303 42.4858 128.005 42.798C127.742 43.0736 127.455 43.5587 127.453 43.7285C127.452 43.8251 121.919 43.8251 121.888 43.7285C121.779 43.3922 121.669 39.998 121.726 38.7247L121.765 37.8495L122.022 37.7835C122.348 37.7002 122.843 37.3821 123.065 37.1145C123.218 36.9295 123.434 36.5335 123.515 36.2889C123.543 36.2026 123.724 36.1966 126.318 36.1966C128.49 36.1966 129.096 36.2109 129.113 36.2626ZM137.419 36.3681C137.536 36.7267 137.739 37.6483 137.828 38.2168C137.959 39.053 137.96 40.9022 137.829 41.7367C137.732 42.3575 137.588 43.0247 137.445 43.5174L137.365 43.7945H134.557H131.75L131.599 43.4476C131.407 43.0078 131.03 42.5934 130.624 42.3771L130.308 42.2084L130.338 40.7458C130.365 39.4373 130.327 38.1921 130.215 36.6583L130.181 36.1966H133.772H137.364L137.419 36.3681ZM130.094 43.3064C130.282 43.4014 130.435 43.5304 130.539 43.6803C130.682 43.887 130.698 43.9489 130.698 44.3221C130.698 44.6953 130.682 44.7572 130.539 44.9639C130.354 45.2314 129.908 45.483 129.62 45.4825C128.953 45.4815 128.435 44.9742 128.435 44.3221C128.435 43.4484 129.313 42.9105 130.094 43.3064ZM121.087 45.7335C121.515 48.3585 122.215 50.4896 123.093 51.8408C123.292 52.1465 123.317 52.2128 123.242 52.2253C123.1 52.2492 121.783 51.9007 121.2 51.685C119.997 51.2394 118.276 50.2736 118.35 50.0851C118.478 49.757 118.546 49.3289 118.52 49.0179C118.392 47.482 116.882 46.5727 115.412 47.1458C115.341 47.1734 115.255 47.0801 115.017 46.7145C114.728 46.2729 114.051 44.9976 114.051 44.8967C114.051 44.8697 115.52 44.8497 117.497 44.8497H120.943L121.087 45.7335ZM127.453 44.9157C127.453 44.952 127.512 45.1068 127.583 45.2598C127.743 45.6034 128.169 46.0614 128.483 46.2281C128.613 46.2969 128.719 46.3805 128.719 46.4137C128.719 46.5354 128.398 47.8816 128.239 48.4285C127.646 50.4663 126.787 51.9333 125.964 52.3167C125.613 52.4803 125.389 52.4805 125.039 52.3175C123.88 51.7779 122.766 49.2611 122.178 45.8522C122.09 45.3444 122.018 44.9111 122.018 44.8893C122.018 44.8675 123.241 44.8497 124.735 44.8497C126.874 44.8497 127.453 44.8637 127.453 44.9157ZM136.95 44.8842C136.95 44.9547 136.326 46.1578 136.105 46.5129C135.122 48.0916 133.597 49.6175 132.018 50.5997C131.465 50.9439 130.5 51.4155 129.851 51.6596C129.275 51.8759 127.969 52.2365 127.761 52.2365C127.653 52.2365 127.653 52.2341 127.748 52.0914C128.595 50.8207 129.221 49.1665 129.692 46.9552L129.778 46.5544L130.106 46.4633C130.812 46.2669 131.321 45.8354 131.599 45.1966L131.75 44.8497H134.35C135.78 44.8497 136.95 44.8652 136.95 44.8842ZM116.854 48.1629C117.737 48.6243 117.649 49.9043 116.709 50.2631C115.956 50.5506 115.114 49.9219 115.171 49.1144C115.213 48.5032 115.723 48.0155 116.32 48.0155C116.493 48.0155 116.66 48.0615 116.854 48.1629Z" fill="#8E2424"/>
<path d="M159.81 40.4545C159.81 41.8523 159.554 43.054 159.043 44.0597C158.531 45.0611 157.83 45.8324 156.94 46.3736C156.053 46.9105 155.045 47.179 153.916 47.179C152.783 47.179 151.771 46.9105 150.88 46.3736C149.994 45.8324 149.295 45.0589 148.783 44.0533C148.272 43.0476 148.016 41.848 148.016 40.4545C148.016 39.0568 148.272 37.8572 148.783 36.8558C149.295 35.8501 149.994 35.0788 150.88 34.5419C151.771 34.0007 152.783 33.7301 153.916 33.7301C155.045 33.7301 156.053 34.0007 156.94 34.5419C157.83 35.0788 158.531 35.8501 159.043 36.8558C159.554 37.8572 159.81 39.0568 159.81 40.4545ZM157.854 40.4545C157.854 39.3892 157.681 38.4922 157.336 37.7635C156.995 37.0305 156.526 36.4766 155.93 36.1016C155.337 35.7223 154.666 35.5327 153.916 35.5327C153.162 35.5327 152.489 35.7223 151.896 36.1016C151.304 36.4766 150.835 37.0305 150.49 37.7635C150.149 38.4922 149.979 39.3892 149.979 40.4545C149.979 41.5199 150.149 42.419 150.49 43.152C150.835 43.8807 151.304 44.4347 151.896 44.8139C152.489 45.1889 153.162 45.3764 153.916 45.3764C154.666 45.3764 155.337 45.1889 155.93 44.8139C156.526 44.4347 156.995 43.8807 157.336 43.152C157.681 42.419 157.854 41.5199 157.854 40.4545ZM162.119 50.6818V37.1818H163.985V38.7734H164.145C164.256 38.5689 164.416 38.3324 164.624 38.0639C164.833 37.7955 165.123 37.5611 165.494 37.3608C165.865 37.1562 166.355 37.054 166.964 37.054C167.757 37.054 168.464 37.2543 169.086 37.6548C169.708 38.0554 170.196 38.6328 170.55 39.3871C170.908 40.1413 171.087 41.049 171.087 42.1101C171.087 43.1712 170.91 44.081 170.556 44.8395C170.203 45.5937 169.717 46.1754 169.099 46.5845C168.481 46.9893 167.776 47.1918 166.983 47.1918C166.387 47.1918 165.899 47.0916 165.519 46.8913C165.144 46.6911 164.85 46.4567 164.637 46.1882C164.424 45.9197 164.26 45.6811 164.145 45.4723H164.03V50.6818H162.119ZM163.992 42.0909C163.992 42.7812 164.092 43.3864 164.292 43.9062C164.492 44.4261 164.782 44.8331 165.161 45.1271C165.541 45.4169 166.005 45.5618 166.555 45.5618C167.126 45.5618 167.603 45.4105 167.987 45.108C168.37 44.8011 168.66 44.3857 168.856 43.8615C169.056 43.3374 169.156 42.7472 169.156 42.0909C169.156 41.4432 169.058 40.8615 168.862 40.3459C168.671 39.8303 168.381 39.4233 167.993 39.125C167.61 38.8267 167.13 38.6776 166.555 38.6776C166.001 38.6776 165.532 38.8203 165.149 39.1058C164.769 39.3913 164.482 39.7898 164.286 40.3011C164.09 40.8125 163.992 41.4091 163.992 42.0909ZM177.811 37.1818V38.7159H172.448V37.1818H177.811ZM173.887 34.8295H175.798V44.1172C175.798 44.4879 175.853 44.767 175.964 44.9545C176.075 45.1378 176.218 45.2635 176.392 45.3317C176.571 45.3956 176.765 45.4276 176.974 45.4276C177.127 45.4276 177.262 45.4169 177.377 45.3956C177.492 45.3743 177.581 45.3572 177.645 45.3445L177.99 46.9233C177.879 46.9659 177.722 47.0085 177.517 47.0511C177.313 47.098 177.057 47.1236 176.75 47.1278C176.247 47.1364 175.779 47.0469 175.344 46.8594C174.909 46.6719 174.558 46.3821 174.289 45.9901C174.021 45.598 173.887 45.1058 173.887 44.5135V34.8295ZM179.925 47V37.1818H181.837V47H179.925ZM180.891 35.6669C180.558 35.6669 180.273 35.5561 180.034 35.3345C179.8 35.1087 179.683 34.8402 179.683 34.5291C179.683 34.2138 179.8 33.9453 180.034 33.7237C180.273 33.4979 180.558 33.3849 180.891 33.3849C181.223 33.3849 181.506 33.4979 181.741 33.7237C181.979 33.9453 182.099 34.2138 182.099 34.5291C182.099 34.8402 181.979 35.1087 181.741 35.3345C181.506 35.5561 181.223 35.6669 180.891 35.6669ZM184.408 47V37.1818H186.242V38.7798H186.364C186.568 38.2386 186.903 37.8168 187.367 37.5142C187.832 37.2074 188.388 37.054 189.036 37.054C189.692 37.054 190.242 37.2074 190.685 37.5142C191.132 37.821 191.463 38.2429 191.676 38.7798H191.778C192.012 38.2557 192.385 37.8381 192.896 37.527C193.408 37.2116 194.017 37.054 194.725 37.054C195.615 37.054 196.342 37.3331 196.904 37.8913C197.471 38.4496 197.754 39.2912 197.754 40.4162V47H195.843V40.5952C195.843 39.9304 195.662 39.4489 195.3 39.1506C194.938 38.8523 194.505 38.7031 194.002 38.7031C193.38 38.7031 192.896 38.8949 192.551 39.2784C192.206 39.6577 192.034 40.1456 192.034 40.7422V47H190.129V40.4737C190.129 39.9411 189.963 39.5128 189.63 39.1889C189.298 38.8651 188.865 38.7031 188.333 38.7031C187.97 38.7031 187.636 38.799 187.329 38.9908C187.026 39.1783 186.781 39.4403 186.594 39.777C186.411 40.1136 186.319 40.5036 186.319 40.9467V47H184.408ZM206.536 42.9283V37.1818H208.453V47H206.574V45.2997H206.472C206.246 45.8239 205.884 46.2607 205.385 46.6101C204.891 46.9553 204.275 47.1278 203.538 47.1278C202.907 47.1278 202.349 46.9893 201.863 46.7124C201.381 46.4311 201.002 46.0156 200.725 45.4659C200.452 44.9162 200.316 44.2365 200.316 43.4268V37.1818H202.227V43.1967C202.227 43.8658 202.413 44.3984 202.783 44.7947C203.154 45.1911 203.636 45.3892 204.228 45.3892C204.586 45.3892 204.942 45.2997 205.295 45.1207C205.653 44.9418 205.95 44.6712 206.184 44.3089C206.423 43.9467 206.54 43.4865 206.536 42.9283ZM218.378 39.5788L216.646 39.8857C216.574 39.6641 216.459 39.4531 216.301 39.2528C216.148 39.0526 215.939 38.8885 215.675 38.7607C215.41 38.6328 215.08 38.5689 214.684 38.5689C214.143 38.5689 213.691 38.6903 213.329 38.9332C212.966 39.1719 212.785 39.4808 212.785 39.8601C212.785 40.1882 212.907 40.4524 213.15 40.6527C213.393 40.853 213.785 41.017 214.326 41.1449L215.885 41.5028C216.789 41.7116 217.462 42.0334 217.905 42.468C218.349 42.9027 218.57 43.4673 218.57 44.1619C218.57 44.75 218.4 45.2741 218.059 45.7344C217.722 46.1903 217.251 46.5483 216.646 46.8082C216.045 47.0682 215.349 47.1982 214.556 47.1982C213.456 47.1982 212.559 46.9638 211.865 46.495C211.17 46.022 210.744 45.3509 210.586 44.4815L212.434 44.2003C212.549 44.6818 212.785 45.0462 213.143 45.2933C213.501 45.5362 213.968 45.6577 214.543 45.6577C215.17 45.6577 215.67 45.5277 216.045 45.2678C216.42 45.0036 216.608 44.6818 216.608 44.3026C216.608 43.9957 216.493 43.7379 216.263 43.5291C216.037 43.3203 215.689 43.1626 215.221 43.0561L213.559 42.6918C212.643 42.483 211.965 42.1506 211.526 41.6946C211.091 41.2386 210.874 40.6612 210.874 39.9624C210.874 39.3828 211.036 38.8757 211.36 38.4411C211.684 38.0064 212.131 37.6676 212.702 37.4247C213.273 37.1776 213.927 37.054 214.665 37.054C215.726 37.054 216.561 37.2841 217.17 37.7443C217.78 38.2003 218.182 38.8118 218.378 39.5788ZM218.843 35.6094V33.9091H228.975V35.6094H224.89V47H222.922V35.6094H218.843ZM233.868 47.1982C232.901 47.1982 232.067 46.9915 231.369 46.5781C230.674 46.1605 230.137 45.5746 229.758 44.8203C229.383 44.0618 229.195 43.1733 229.195 42.1548C229.195 41.1491 229.383 40.2628 229.758 39.4957C230.137 38.7287 230.665 38.13 231.343 37.6996C232.025 37.2692 232.822 37.054 233.734 37.054C234.288 37.054 234.825 37.1456 235.344 37.3288C235.864 37.5121 236.331 37.7997 236.744 38.1918C237.158 38.5838 237.484 39.093 237.722 39.7195C237.961 40.3416 238.08 41.098 238.08 41.9886V42.6662H230.276V41.2344H236.207C236.207 40.7315 236.105 40.2862 235.901 39.8984C235.696 39.5064 235.408 39.1974 235.038 38.9716C234.671 38.7457 234.241 38.6328 233.746 38.6328C233.21 38.6328 232.741 38.7649 232.34 39.0291C231.944 39.2891 231.637 39.63 231.42 40.0518C231.207 40.4695 231.1 40.9233 231.1 41.4134V42.532C231.1 43.1882 231.215 43.7464 231.445 44.2067C231.68 44.6669 232.006 45.0185 232.423 45.2614C232.841 45.5 233.329 45.6193 233.887 45.6193C234.249 45.6193 234.58 45.5682 234.878 45.4659C235.176 45.3594 235.434 45.2017 235.651 44.9929C235.869 44.7841 236.035 44.5263 236.15 44.2195L237.959 44.5455C237.814 45.0781 237.554 45.5447 237.179 45.9453C236.808 46.3416 236.342 46.6506 235.779 46.8722C235.221 47.0895 234.584 47.1982 233.868 47.1982ZM244.336 47.1982C243.386 47.1982 242.568 46.983 241.882 46.5526C241.2 46.1179 240.676 45.5192 240.309 44.7564C239.943 43.9936 239.76 43.12 239.76 42.1357C239.76 41.1385 239.947 40.2585 240.322 39.4957C240.697 38.7287 241.226 38.13 241.907 37.6996C242.589 37.2692 243.393 37.054 244.317 37.054C245.063 37.054 245.728 37.1925 246.312 37.4695C246.895 37.7422 247.366 38.1257 247.724 38.62C248.086 39.1143 248.302 39.6918 248.37 40.3523H246.51C246.407 39.892 246.173 39.4957 245.807 39.1634C245.444 38.831 244.959 38.6648 244.349 38.6648C243.817 38.6648 243.35 38.8054 242.949 39.0866C242.553 39.3636 242.244 39.7599 242.023 40.2756C241.801 40.7869 241.69 41.392 241.69 42.0909C241.69 42.8068 241.799 43.4247 242.016 43.9446C242.233 44.4645 242.54 44.8672 242.937 45.1527C243.337 45.4382 243.808 45.581 244.349 45.581C244.711 45.581 245.04 45.5149 245.334 45.3828C245.632 45.2464 245.881 45.0526 246.081 44.8011C246.286 44.5497 246.429 44.2472 246.51 43.8935H248.37C248.302 44.5284 248.095 45.0952 247.75 45.5938C247.405 46.0923 246.942 46.4844 246.363 46.7699C245.787 47.0554 245.112 47.1982 244.336 47.1982ZM252.325 41.1705V47H250.414V33.9091H252.299V38.7798H252.421C252.651 38.2514 253.002 37.8317 253.475 37.5206C253.949 37.2095 254.566 37.054 255.329 37.054C256.002 37.054 256.591 37.1925 257.093 37.4695C257.6 37.7464 257.993 38.1598 258.27 38.7095C258.551 39.255 258.691 39.9368 258.691 40.755V47H256.78V40.9851C256.78 40.2649 256.595 39.7067 256.224 39.3104C255.853 38.9098 255.338 38.7095 254.677 38.7095C254.225 38.7095 253.821 38.8054 253.463 38.9972C253.109 39.1889 252.83 39.4702 252.625 39.8409C252.425 40.2074 252.325 40.6506 252.325 41.1705Z" fill="#3A404E"/>
<path d="M380.278 46V34.3636H382.034V39.4205H387.835V34.3636H389.597V46H387.835V40.9261H382.034V46H380.278ZM395.693 46.1761C394.875 46.1761 394.161 45.9886 393.551 45.6136C392.941 45.2386 392.468 44.714 392.131 44.0398C391.794 43.3655 391.625 42.5777 391.625 41.6761C391.625 40.7708 391.794 39.9792 392.131 39.3011C392.468 38.6231 392.941 38.0966 393.551 37.7216C394.161 37.3466 394.875 37.1591 395.693 37.1591C396.511 37.1591 397.225 37.3466 397.835 37.7216C398.445 38.0966 398.919 38.6231 399.256 39.3011C399.593 39.9792 399.761 40.7708 399.761 41.6761C399.761 42.5777 399.593 43.3655 399.256 44.0398C398.919 44.714 398.445 45.2386 397.835 45.6136C397.225 45.9886 396.511 46.1761 395.693 46.1761ZM395.699 44.75C396.229 44.75 396.669 44.6098 397.017 44.3295C397.366 44.0492 397.623 43.6761 397.79 43.2102C397.96 42.7443 398.045 42.2311 398.045 41.6705C398.045 41.1136 397.96 40.6023 397.79 40.1364C397.623 39.6667 397.366 39.2898 397.017 39.0057C396.669 38.7216 396.229 38.5795 395.699 38.5795C395.165 38.5795 394.722 38.7216 394.369 39.0057C394.021 39.2898 393.761 39.6667 393.591 40.1364C393.424 40.6023 393.341 41.1136 393.341 41.6705C393.341 42.2311 393.424 42.7443 393.591 43.2102C393.761 43.6761 394.021 44.0492 394.369 44.3295C394.722 44.6098 395.165 44.75 395.699 44.75ZM401.658 46V37.2727H403.288V38.6932H403.396C403.578 38.2121 403.875 37.8371 404.288 37.5682C404.701 37.2955 405.196 37.1591 405.771 37.1591C406.355 37.1591 406.843 37.2955 407.237 37.5682C407.635 37.8409 407.929 38.2159 408.118 38.6932H408.209C408.417 38.2273 408.749 37.8561 409.203 37.5795C409.658 37.2992 410.199 37.1591 410.828 37.1591C411.62 37.1591 412.266 37.4072 412.766 37.9034C413.269 38.3996 413.521 39.1477 413.521 40.1477V46H411.822V40.3068C411.822 39.7159 411.661 39.2879 411.339 39.0227C411.018 38.7576 410.633 38.625 410.186 38.625C409.633 38.625 409.203 38.7955 408.896 39.1364C408.589 39.4735 408.436 39.9072 408.436 40.4375V46H406.743V40.1989C406.743 39.7254 406.595 39.3447 406.3 39.0568C406.004 38.7689 405.62 38.625 405.146 38.625C404.824 38.625 404.527 38.7102 404.254 38.8807C403.985 39.0473 403.768 39.2803 403.601 39.5795C403.438 39.8788 403.357 40.2254 403.357 40.6193V46H401.658ZM419.56 46.1761C418.7 46.1761 417.959 45.9924 417.338 45.625C416.721 45.2538 416.243 44.733 415.906 44.0625C415.573 43.3883 415.406 42.5985 415.406 41.6932C415.406 40.7992 415.573 40.0114 415.906 39.3295C416.243 38.6477 416.713 38.1155 417.315 37.733C417.921 37.3504 418.63 37.1591 419.44 37.1591C419.933 37.1591 420.41 37.2405 420.872 37.4034C421.334 37.5663 421.749 37.822 422.116 38.1705C422.484 38.5189 422.774 38.9716 422.986 39.5284C423.198 40.0814 423.304 40.7538 423.304 41.5455V42.1477H416.366V40.875H421.639C421.639 40.428 421.548 40.0322 421.366 39.6875C421.185 39.339 420.929 39.0644 420.599 38.8636C420.274 38.6629 419.891 38.5625 419.452 38.5625C418.974 38.5625 418.558 38.6799 418.202 38.9148C417.849 39.1458 417.577 39.4489 417.384 39.8239C417.194 40.1951 417.099 40.5985 417.099 41.0341V42.0284C417.099 42.6117 417.202 43.108 417.406 43.517C417.615 43.9261 417.904 44.2386 418.276 44.4545C418.647 44.6667 419.08 44.7727 419.577 44.7727C419.899 44.7727 420.192 44.7273 420.457 44.6364C420.723 44.5417 420.952 44.4015 421.145 44.2159C421.338 44.0303 421.486 43.8011 421.588 43.5284L423.196 43.8182C423.067 44.2917 422.836 44.7064 422.503 45.0625C422.173 45.4148 421.759 45.6894 421.259 45.8864C420.762 46.0795 420.196 46.1761 419.56 46.1761Z" fill="#667085"/>
<path d="M458.278 46V34.3636H462.426C463.331 34.3636 464.081 34.5284 464.676 34.858C465.271 35.1875 465.716 35.6383 466.011 36.2102C466.307 36.7784 466.455 37.4186 466.455 38.1307C466.455 38.8466 466.305 39.4905 466.006 40.0625C465.71 40.6307 465.263 41.0814 464.665 41.4148C464.07 41.7443 463.322 41.9091 462.42 41.9091H459.568V40.4205H462.261C462.833 40.4205 463.297 40.322 463.653 40.125C464.009 39.9242 464.271 39.6515 464.438 39.3068C464.604 38.9621 464.688 38.5701 464.688 38.1307C464.688 37.6913 464.604 37.3011 464.438 36.9602C464.271 36.6193 464.008 36.3523 463.648 36.1591C463.292 35.9659 462.822 35.8693 462.239 35.8693H460.034V46H458.278ZM468.376 46V37.2727H470.018V38.6591H470.109C470.268 38.1894 470.549 37.8201 470.95 37.5511C471.356 37.2784 471.814 37.142 472.325 37.142C472.431 37.142 472.556 37.1458 472.7 37.1534C472.848 37.161 472.964 37.1705 473.047 37.1818V38.8068C472.979 38.7879 472.857 38.767 472.683 38.7443C472.509 38.7178 472.335 38.7045 472.161 38.7045C471.759 38.7045 471.401 38.7898 471.087 38.9602C470.776 39.1269 470.53 39.3598 470.348 39.6591C470.166 39.9545 470.075 40.2917 470.075 40.6705V46H468.376ZM477.881 46.1761C477.063 46.1761 476.348 45.9886 475.739 45.6136C475.129 45.2386 474.655 44.714 474.318 44.0398C473.981 43.3655 473.812 42.5777 473.812 41.6761C473.812 40.7708 473.981 39.9792 474.318 39.3011C474.655 38.6231 475.129 38.0966 475.739 37.7216C476.348 37.3466 477.063 37.1591 477.881 37.1591C478.699 37.1591 479.413 37.3466 480.023 37.7216C480.633 38.0966 481.106 38.6231 481.443 39.3011C481.78 39.9792 481.949 40.7708 481.949 41.6761C481.949 42.5777 481.78 43.3655 481.443 44.0398C481.106 44.714 480.633 45.2386 480.023 45.6136C479.413 45.9886 478.699 46.1761 477.881 46.1761ZM477.886 44.75C478.417 44.75 478.856 44.6098 479.205 44.3295C479.553 44.0492 479.811 43.6761 479.977 43.2102C480.148 42.7443 480.233 42.2311 480.233 41.6705C480.233 41.1136 480.148 40.6023 479.977 40.1364C479.811 39.6667 479.553 39.2898 479.205 39.0057C478.856 38.7216 478.417 38.5795 477.886 38.5795C477.352 38.5795 476.909 38.7216 476.557 39.0057C476.208 39.2898 475.949 39.6667 475.778 40.1364C475.612 40.6023 475.528 41.1136 475.528 41.6705C475.528 42.2311 475.612 42.7443 475.778 43.2102C475.949 43.6761 476.208 44.0492 476.557 44.3295C476.909 44.6098 477.352 44.75 477.886 44.75ZM487.112 46.1705C486.408 46.1705 485.779 45.9905 485.226 45.6307C484.677 45.267 484.245 44.75 483.93 44.0795C483.62 43.4053 483.464 42.5966 483.464 41.6534C483.464 40.7102 483.622 39.9034 483.936 39.233C484.254 38.5625 484.69 38.0492 485.243 37.6932C485.796 37.3371 486.423 37.1591 487.124 37.1591C487.665 37.1591 488.101 37.25 488.43 37.4318C488.764 37.6098 489.021 37.8182 489.203 38.0568C489.389 38.2955 489.533 38.5057 489.635 38.6875H489.737V34.3636H491.436V46H489.777V44.642H489.635C489.533 44.8277 489.385 45.0398 489.192 45.2784C489.002 45.517 488.741 45.7254 488.408 45.9034C488.074 46.0814 487.643 46.1705 487.112 46.1705ZM487.487 44.7216C487.976 44.7216 488.389 44.5928 488.726 44.3352C489.067 44.0739 489.324 43.7121 489.499 43.25C489.677 42.7879 489.766 42.25 489.766 41.6364C489.766 41.0303 489.679 40.5 489.504 40.0455C489.33 39.5909 489.074 39.2367 488.737 38.983C488.4 38.7292 487.983 38.6023 487.487 38.6023C486.976 38.6023 486.55 38.7348 486.209 39C485.868 39.2652 485.61 39.6269 485.436 40.0852C485.266 40.5436 485.18 41.0606 485.18 41.6364C485.18 42.2197 485.268 42.7443 485.442 43.2102C485.616 43.6761 485.874 44.0455 486.214 44.3182C486.559 44.5871 486.983 44.7216 487.487 44.7216ZM499.389 42.3807V37.2727H501.094V46H499.423V44.4886H499.332C499.132 44.9545 498.81 45.3428 498.366 45.6534C497.927 45.9602 497.38 46.1136 496.724 46.1136C496.164 46.1136 495.668 45.9905 495.236 45.7443C494.808 45.4943 494.471 45.125 494.224 44.6364C493.982 44.1477 493.861 43.5436 493.861 42.8239V37.2727H495.56V42.6193C495.56 43.214 495.724 43.6875 496.054 44.0398C496.384 44.392 496.812 44.5682 497.338 44.5682C497.656 44.5682 497.973 44.4886 498.287 44.3295C498.605 44.1705 498.868 43.9299 499.077 43.608C499.289 43.286 499.393 42.8769 499.389 42.3807ZM507.45 37.2727V38.6364H502.683V37.2727H507.45ZM503.962 35.1818H505.661V43.4375C505.661 43.767 505.71 44.0152 505.808 44.1818C505.907 44.3447 506.034 44.4564 506.189 44.517C506.348 44.5739 506.52 44.6023 506.706 44.6023C506.842 44.6023 506.962 44.5928 507.064 44.5739C507.166 44.5549 507.246 44.5398 507.303 44.5284L507.609 45.9318C507.511 45.9697 507.371 46.0076 507.189 46.0455C507.007 46.0871 506.78 46.1098 506.507 46.1136C506.06 46.1212 505.643 46.0417 505.257 45.875C504.871 45.7083 504.558 45.4508 504.32 45.1023C504.081 44.7538 503.962 44.3163 503.962 43.7898V35.1818ZM512.912 46.1761C512.094 46.1761 511.38 45.9886 510.77 45.6136C510.16 45.2386 509.687 44.714 509.349 44.0398C509.012 43.3655 508.844 42.5777 508.844 41.6761C508.844 40.7708 509.012 39.9792 509.349 39.3011C509.687 38.6231 510.16 38.0966 510.77 37.7216C511.38 37.3466 512.094 37.1591 512.912 37.1591C513.73 37.1591 514.444 37.3466 515.054 37.7216C515.664 38.0966 516.137 38.6231 516.474 39.3011C516.812 39.9792 516.98 40.7708 516.98 41.6761C516.98 42.5777 516.812 43.3655 516.474 44.0398C516.137 44.714 515.664 45.2386 515.054 45.6136C514.444 45.9886 513.73 46.1761 512.912 46.1761ZM512.918 44.75C513.448 44.75 513.887 44.6098 514.236 44.3295C514.584 44.0492 514.842 43.6761 515.009 43.2102C515.179 42.7443 515.264 42.2311 515.264 41.6705C515.264 41.1136 515.179 40.6023 515.009 40.1364C514.842 39.6667 514.584 39.2898 514.236 39.0057C513.887 38.7216 513.448 38.5795 512.918 38.5795C512.384 38.5795 511.94 38.7216 511.588 39.0057C511.24 39.2898 510.98 39.6667 510.81 40.1364C510.643 40.6023 510.56 41.1136 510.56 41.6705C510.56 42.2311 510.643 42.7443 510.81 43.2102C510.98 43.6761 511.24 44.0492 511.588 44.3295C511.94 44.6098 512.384 44.75 512.918 44.75ZM525.416 39.4034L523.876 39.6761C523.812 39.4792 523.71 39.2917 523.57 39.1136C523.433 38.9356 523.248 38.7898 523.013 38.6761C522.778 38.5625 522.484 38.5057 522.132 38.5057C521.651 38.5057 521.25 38.6136 520.928 38.8295C520.606 39.0417 520.445 39.3163 520.445 39.6534C520.445 39.9451 520.553 40.1799 520.768 40.358C520.984 40.536 521.333 40.6818 521.814 40.7955L523.2 41.1136C524.003 41.2992 524.602 41.5852 524.996 41.9716C525.39 42.358 525.587 42.8598 525.587 43.4773C525.587 44 525.435 44.4659 525.132 44.875C524.833 45.2803 524.414 45.5985 523.876 45.8295C523.342 46.0606 522.723 46.1761 522.018 46.1761C521.041 46.1761 520.244 45.9678 519.626 45.5511C519.009 45.1307 518.63 44.5341 518.49 43.7614L520.132 43.5114C520.234 43.9394 520.445 44.2633 520.763 44.483C521.081 44.6989 521.496 44.8068 522.007 44.8068C522.564 44.8068 523.009 44.6913 523.342 44.4602C523.676 44.2254 523.842 43.9394 523.842 43.6023C523.842 43.3295 523.74 43.1004 523.536 42.9148C523.335 42.7292 523.026 42.589 522.609 42.4943L521.132 42.1705C520.318 41.9848 519.715 41.6894 519.325 41.2841C518.939 40.8788 518.746 40.3655 518.746 39.7443C518.746 39.2292 518.89 38.7784 519.178 38.392C519.465 38.0057 519.863 37.7045 520.371 37.4886C520.878 37.2689 521.46 37.1591 522.115 37.1591C523.058 37.1591 523.801 37.3636 524.342 37.7727C524.884 38.178 525.242 38.7216 525.416 39.4034Z" fill="#667085"/>
<path d="M560.278 46V34.3636H564.426C565.328 34.3636 566.076 34.5189 566.67 34.8295C567.269 35.1402 567.716 35.5701 568.011 36.1193C568.307 36.6648 568.455 37.2955 568.455 38.0114C568.455 38.7235 568.305 39.3504 568.006 39.892C567.71 40.4299 567.263 40.8485 566.665 41.1477C566.07 41.447 565.322 41.5966 564.42 41.5966H561.278V40.0852H564.261C564.83 40.0852 565.292 40.0038 565.648 39.8409C566.008 39.678 566.271 39.4413 566.438 39.1307C566.604 38.8201 566.688 38.447 566.688 38.0114C566.688 37.572 566.602 37.1913 566.432 36.8693C566.265 36.5473 566.002 36.3011 565.642 36.1307C565.286 35.9564 564.818 35.8693 564.239 35.8693H562.034V46H560.278ZM566.023 40.75L568.898 46H566.898L564.08 40.75H566.023ZM574.107 46.1761C573.247 46.1761 572.506 45.9924 571.885 45.625C571.268 45.2538 570.79 44.733 570.453 44.0625C570.12 43.3883 569.953 42.5985 569.953 41.6932C569.953 40.7992 570.12 40.0114 570.453 39.3295C570.79 38.6477 571.26 38.1155 571.862 37.733C572.468 37.3504 573.177 37.1591 573.987 37.1591C574.48 37.1591 574.957 37.2405 575.419 37.4034C575.881 37.5663 576.296 37.822 576.663 38.1705C577.031 38.5189 577.321 38.9716 577.533 39.5284C577.745 40.0814 577.851 40.7538 577.851 41.5455V42.1477H570.913V40.875H576.186C576.186 40.428 576.095 40.0322 575.913 39.6875C575.732 39.339 575.476 39.0644 575.146 38.8636C574.821 38.6629 574.438 38.5625 573.999 38.5625C573.521 38.5625 573.105 38.6799 572.749 38.9148C572.396 39.1458 572.124 39.4489 571.93 39.8239C571.741 40.1951 571.646 40.5985 571.646 41.0341V42.0284C571.646 42.6117 571.749 43.108 571.953 43.517C572.161 43.9261 572.451 44.2386 572.822 44.4545C573.194 44.6667 573.627 44.7727 574.124 44.7727C574.446 44.7727 574.739 44.7273 575.004 44.6364C575.269 44.5417 575.499 44.4015 575.692 44.2159C575.885 44.0303 576.033 43.8011 576.135 43.5284L577.743 43.8182C577.614 44.2917 577.383 44.7064 577.05 45.0625C576.72 45.4148 576.305 45.6894 575.805 45.8864C575.309 46.0795 574.743 46.1761 574.107 46.1761ZM583.412 46.1761C582.567 46.1761 581.84 45.9848 581.23 45.6023C580.624 45.2159 580.158 44.6837 579.832 44.0057C579.507 43.3277 579.344 42.5511 579.344 41.6761C579.344 40.7898 579.51 40.0076 579.844 39.3295C580.177 38.6477 580.647 38.1155 581.253 37.733C581.859 37.3504 582.573 37.1591 583.395 37.1591C584.058 37.1591 584.649 37.2822 585.168 37.5284C585.687 37.7708 586.105 38.1117 586.423 38.5511C586.745 38.9905 586.937 39.5038 586.997 40.0909H585.344C585.253 39.6818 585.045 39.3295 584.719 39.0341C584.397 38.7386 583.965 38.5909 583.423 38.5909C582.95 38.5909 582.535 38.7159 582.179 38.9659C581.827 39.2121 581.552 39.5644 581.355 40.0227C581.158 40.4773 581.06 41.0152 581.06 41.6364C581.06 42.2727 581.156 42.822 581.349 43.2841C581.543 43.7462 581.815 44.1042 582.168 44.358C582.524 44.6117 582.942 44.7386 583.423 44.7386C583.745 44.7386 584.037 44.6799 584.298 44.5625C584.563 44.4413 584.785 44.2689 584.963 44.0455C585.145 43.822 585.272 43.553 585.344 43.2386H586.997C586.937 43.803 586.753 44.3068 586.446 44.75C586.139 45.1932 585.728 45.5417 585.213 45.7955C584.702 46.0492 584.101 46.1761 583.412 46.1761ZM594.342 42.3807V37.2727H596.047V46H594.376V44.4886H594.286C594.085 44.9545 593.763 45.3428 593.32 45.6534C592.88 45.9602 592.333 46.1136 591.678 46.1136C591.117 46.1136 590.621 45.9905 590.189 45.7443C589.761 45.4943 589.424 45.125 589.178 44.6364C588.935 44.1477 588.814 43.5436 588.814 42.8239V37.2727H590.513V42.6193C590.513 43.214 590.678 43.6875 591.007 44.0398C591.337 44.392 591.765 44.5682 592.291 44.5682C592.609 44.5682 592.926 44.4886 593.24 44.3295C593.558 44.1705 593.821 43.9299 594.03 43.608C594.242 43.286 594.346 42.8769 594.342 42.3807ZM598.33 46V37.2727H599.972V38.6591H600.062C600.222 38.1894 600.502 37.8201 600.903 37.5511C601.309 37.2784 601.767 37.142 602.278 37.142C602.384 37.142 602.509 37.1458 602.653 37.1534C602.801 37.161 602.917 37.1705 603 37.1818V38.8068C602.932 38.7879 602.811 38.767 602.636 38.7443C602.462 38.7178 602.288 38.7045 602.114 38.7045C601.712 38.7045 601.354 38.7898 601.04 38.9602C600.729 39.1269 600.483 39.3598 600.301 39.6591C600.119 39.9545 600.028 40.2917 600.028 40.6705V46H598.33ZM611.01 39.4034L609.47 39.6761C609.406 39.4792 609.304 39.2917 609.163 39.1136C609.027 38.9356 608.841 38.7898 608.607 38.6761C608.372 38.5625 608.078 38.5057 607.726 38.5057C607.245 38.5057 606.843 38.6136 606.521 38.8295C606.199 39.0417 606.038 39.3163 606.038 39.6534C606.038 39.9451 606.146 40.1799 606.362 40.358C606.578 40.536 606.927 40.6818 607.408 40.7955L608.794 41.1136C609.597 41.2992 610.196 41.5852 610.589 41.9716C610.983 42.358 611.18 42.8598 611.18 43.4773C611.18 44 611.029 44.4659 610.726 44.875C610.427 45.2803 610.008 45.5985 609.47 45.8295C608.936 46.0606 608.317 46.1761 607.612 46.1761C606.635 46.1761 605.838 45.9678 605.22 45.5511C604.603 45.1307 604.224 44.5341 604.084 43.7614L605.726 43.5114C605.828 43.9394 606.038 44.2633 606.357 44.483C606.675 44.6989 607.089 44.8068 607.601 44.8068C608.158 44.8068 608.603 44.6913 608.936 44.4602C609.269 44.2254 609.436 43.9394 609.436 43.6023C609.436 43.3295 609.334 43.1004 609.129 42.9148C608.929 42.7292 608.62 42.589 608.203 42.4943L606.726 42.1705C605.911 41.9848 605.309 41.6894 604.919 41.2841C604.533 40.8788 604.339 40.3655 604.339 39.7443C604.339 39.2292 604.483 38.7784 604.771 38.392C605.059 38.0057 605.457 37.7045 605.964 37.4886C606.472 37.2689 607.054 37.1591 607.709 37.1591C608.652 37.1591 609.394 37.3636 609.936 37.7727C610.478 38.178 610.836 38.7216 611.01 39.4034ZM616.724 46.1761C615.906 46.1761 615.192 45.9886 614.582 45.6136C613.973 45.2386 613.499 44.714 613.162 44.0398C612.825 43.3655 612.656 42.5777 612.656 41.6761C612.656 40.7708 612.825 39.9792 613.162 39.3011C613.499 38.6231 613.973 38.0966 614.582 37.7216C615.192 37.3466 615.906 37.1591 616.724 37.1591C617.543 37.1591 618.257 37.3466 618.866 37.7216C619.476 38.0966 619.95 38.6231 620.287 39.3011C620.624 39.9792 620.793 40.7708 620.793 41.6761C620.793 42.5777 620.624 43.3655 620.287 44.0398C619.95 44.714 619.476 45.2386 618.866 45.6136C618.257 45.9886 617.543 46.1761 616.724 46.1761ZM616.73 44.75C617.26 44.75 617.7 44.6098 618.048 44.3295C618.397 44.0492 618.654 43.6761 618.821 43.2102C618.991 42.7443 619.077 42.2311 619.077 41.6705C619.077 41.1136 618.991 40.6023 618.821 40.1364C618.654 39.6667 618.397 39.2898 618.048 39.0057C617.7 38.7216 617.26 38.5795 616.73 38.5795C616.196 38.5795 615.753 38.7216 615.401 39.0057C615.052 39.2898 614.793 39.6667 614.622 40.1364C614.455 40.6023 614.372 41.1136 614.372 41.6705C614.372 42.2311 614.455 42.7443 614.622 43.2102C614.793 43.6761 615.052 44.0492 615.401 44.3295C615.753 44.6098 616.196 44.75 616.73 44.75ZM629.229 39.4034L627.689 39.6761C627.625 39.4792 627.522 39.2917 627.382 39.1136C627.246 38.9356 627.06 38.7898 626.825 38.6761C626.59 38.5625 626.297 38.5057 625.945 38.5057C625.464 38.5057 625.062 38.6136 624.74 38.8295C624.418 39.0417 624.257 39.3163 624.257 39.6534C624.257 39.9451 624.365 40.1799 624.581 40.358C624.797 40.536 625.145 40.6818 625.626 40.7955L627.013 41.1136C627.816 41.2992 628.414 41.5852 628.808 41.9716C629.202 42.358 629.399 42.8598 629.399 43.4773C629.399 44 629.248 44.4659 628.945 44.875C628.645 45.2803 628.227 45.5985 627.689 45.8295C627.155 46.0606 626.536 46.1761 625.831 46.1761C624.854 46.1761 624.056 45.9678 623.439 45.5511C622.821 45.1307 622.443 44.5341 622.303 43.7614L623.945 43.5114C624.047 43.9394 624.257 44.2633 624.575 44.483C624.893 44.6989 625.308 44.8068 625.82 44.8068C626.376 44.8068 626.821 44.6913 627.155 44.4602C627.488 44.2254 627.655 43.9394 627.655 43.6023C627.655 43.3295 627.553 43.1004 627.348 42.9148C627.147 42.7292 626.839 42.589 626.422 42.4943L624.945 42.1705C624.13 41.9848 623.528 41.6894 623.138 41.2841C622.751 40.8788 622.558 40.3655 622.558 39.7443C622.558 39.2292 622.702 38.7784 622.99 38.392C623.278 38.0057 623.676 37.7045 624.183 37.4886C624.691 37.2689 625.272 37.1591 625.928 37.1591C626.871 37.1591 627.613 37.3636 628.155 37.7727C628.696 38.178 629.054 38.7216 629.229 39.4034Z" fill="#667085"/>
<path d="M670.625 37.4205C670.564 36.8826 670.314 36.4659 669.875 36.1705C669.436 35.8712 668.883 35.7216 668.216 35.7216C667.739 35.7216 667.326 35.7973 666.977 35.9489C666.629 36.0966 666.358 36.3011 666.165 36.5625C665.975 36.8201 665.881 37.1136 665.881 37.4432C665.881 37.7197 665.945 37.9583 666.074 38.1591C666.206 38.3598 666.379 38.5284 666.591 38.6648C666.807 38.7973 667.038 38.9091 667.284 39C667.53 39.0871 667.767 39.1591 667.994 39.2159L669.131 39.5114C669.502 39.6023 669.883 39.7254 670.273 39.8807C670.663 40.036 671.025 40.2405 671.358 40.4943C671.691 40.7481 671.96 41.0625 672.165 41.4375C672.373 41.8125 672.477 42.2614 672.477 42.7841C672.477 43.4432 672.307 44.0284 671.966 44.5398C671.629 45.0511 671.138 45.4545 670.494 45.75C669.854 46.0455 669.08 46.1932 668.17 46.1932C667.299 46.1932 666.545 46.0549 665.909 45.7784C665.273 45.5019 664.775 45.1098 664.415 44.6023C664.055 44.0909 663.856 43.4848 663.818 42.7841H665.58C665.614 43.2045 665.75 43.5549 665.989 43.8352C666.231 44.1117 666.54 44.3182 666.915 44.4545C667.294 44.5871 667.708 44.6534 668.159 44.6534C668.655 44.6534 669.097 44.5758 669.483 44.4205C669.873 44.2614 670.18 44.0417 670.403 43.7614C670.627 43.4773 670.739 43.1458 670.739 42.767C670.739 42.4223 670.64 42.1402 670.443 41.9205C670.25 41.7008 669.987 41.5189 669.653 41.375C669.324 41.2311 668.951 41.1042 668.534 40.9943L667.159 40.6193C666.227 40.3655 665.489 39.9924 664.943 39.5C664.402 39.0076 664.131 38.3561 664.131 37.5455C664.131 36.875 664.313 36.2898 664.676 35.7898C665.04 35.2898 665.532 34.9015 666.153 34.625C666.775 34.3447 667.475 34.2045 668.256 34.2045C669.044 34.2045 669.739 34.3428 670.341 34.6193C670.947 34.8958 671.424 35.2765 671.773 35.7614C672.121 36.2424 672.303 36.7955 672.318 37.4205H670.625ZM678.115 46.1761C677.297 46.1761 676.583 45.9886 675.973 45.6136C675.363 45.2386 674.89 44.714 674.553 44.0398C674.215 43.3655 674.047 42.5777 674.047 41.6761C674.047 40.7708 674.215 39.9792 674.553 39.3011C674.89 38.6231 675.363 38.0966 675.973 37.7216C676.583 37.3466 677.297 37.1591 678.115 37.1591C678.933 37.1591 679.647 37.3466 680.257 37.7216C680.867 38.0966 681.34 38.6231 681.678 39.3011C682.015 39.9792 682.183 40.7708 682.183 41.6761C682.183 42.5777 682.015 43.3655 681.678 44.0398C681.34 44.714 680.867 45.2386 680.257 45.6136C679.647 45.9886 678.933 46.1761 678.115 46.1761ZM678.121 44.75C678.651 44.75 679.09 44.6098 679.439 44.3295C679.787 44.0492 680.045 43.6761 680.212 43.2102C680.382 42.7443 680.467 42.2311 680.467 41.6705C680.467 41.1136 680.382 40.6023 680.212 40.1364C680.045 39.6667 679.787 39.2898 679.439 39.0057C679.09 38.7216 678.651 38.5795 678.121 38.5795C677.587 38.5795 677.143 38.7216 676.791 39.0057C676.443 39.2898 676.183 39.6667 676.013 40.1364C675.846 40.6023 675.763 41.1136 675.763 41.6705C675.763 42.2311 675.846 42.7443 676.013 43.2102C676.183 43.6761 676.443 44.0492 676.791 44.3295C677.143 44.6098 677.587 44.75 678.121 44.75ZM684.216 46V34.3636H685.915V38.6875H686.017C686.116 38.5057 686.258 38.2955 686.443 38.0568C686.629 37.8182 686.886 37.6098 687.216 37.4318C687.545 37.25 687.981 37.1591 688.523 37.1591C689.227 37.1591 689.856 37.3371 690.409 37.6932C690.962 38.0492 691.396 38.5625 691.71 39.233C692.028 39.9034 692.188 40.7102 692.188 41.6534C692.188 42.5966 692.03 43.4053 691.716 44.0795C691.402 44.75 690.97 45.267 690.42 45.6307C689.871 45.9905 689.244 46.1705 688.54 46.1705C688.009 46.1705 687.576 46.0814 687.239 45.9034C686.905 45.7254 686.644 45.517 686.455 45.2784C686.265 45.0398 686.119 44.8277 686.017 44.642H685.875V46H684.216ZM685.881 41.6364C685.881 42.25 685.97 42.7879 686.148 43.25C686.326 43.7121 686.583 44.0739 686.92 44.3352C687.258 44.5928 687.67 44.7216 688.159 44.7216C688.667 44.7216 689.091 44.5871 689.432 44.3182C689.773 44.0455 690.03 43.6761 690.205 43.2102C690.383 42.7443 690.472 42.2197 690.472 41.6364C690.472 41.0606 690.384 40.5436 690.21 40.0852C690.04 39.6269 689.782 39.2652 689.438 39C689.097 38.7348 688.67 38.6023 688.159 38.6023C687.667 38.6023 687.25 38.7292 686.909 38.983C686.572 39.2367 686.316 39.5909 686.142 40.0455C685.968 40.5 685.881 41.0303 685.881 41.6364ZM694.095 46V37.2727H695.737V38.6591H695.828C695.987 38.1894 696.268 37.8201 696.669 37.5511C697.074 37.2784 697.533 37.142 698.044 37.142C698.15 37.142 698.275 37.1458 698.419 37.1534C698.567 37.161 698.682 37.1705 698.766 37.1818V38.8068C698.697 38.7879 698.576 38.767 698.402 38.7443C698.228 38.7178 698.054 38.7045 697.879 38.7045C697.478 38.7045 697.12 38.7898 696.805 38.9602C696.495 39.1269 696.249 39.3598 696.067 39.6591C695.885 39.9545 695.794 40.2917 695.794 40.6705V46H694.095ZM703.685 46.1761C702.825 46.1761 702.084 45.9924 701.463 45.625C700.846 45.2538 700.368 44.733 700.031 44.0625C699.698 43.3883 699.531 42.5985 699.531 41.6932C699.531 40.7992 699.698 40.0114 700.031 39.3295C700.368 38.6477 700.838 38.1155 701.44 37.733C702.046 37.3504 702.755 37.1591 703.565 37.1591C704.058 37.1591 704.535 37.2405 704.997 37.4034C705.459 37.5663 705.874 37.822 706.241 38.1705C706.609 38.5189 706.899 38.9716 707.111 39.5284C707.323 40.0814 707.429 40.7538 707.429 41.5455V42.1477H700.491V40.875H705.764C705.764 40.428 705.673 40.0322 705.491 39.6875C705.31 39.339 705.054 39.0644 704.724 38.8636C704.399 38.6629 704.016 38.5625 703.577 38.5625C703.099 38.5625 702.683 38.6799 702.327 38.9148C701.974 39.1458 701.702 39.4489 701.509 39.8239C701.319 40.1951 701.224 40.5985 701.224 41.0341V42.0284C701.224 42.6117 701.327 43.108 701.531 43.517C701.74 43.9261 702.029 44.2386 702.401 44.4545C702.772 44.6667 703.205 44.7727 703.702 44.7727C704.024 44.7727 704.317 44.7273 704.582 44.6364C704.848 44.5417 705.077 44.4015 705.27 44.2159C705.463 44.0303 705.611 43.8011 705.713 43.5284L707.321 43.8182C707.192 44.2917 706.961 44.7064 706.628 45.0625C706.298 45.4148 705.884 45.6894 705.384 45.8864C704.887 46.0795 704.321 46.1761 703.685 46.1761ZM715.247 40.8182V46H713.548V37.2727H715.179V38.6932H715.287C715.488 38.2311 715.802 37.8598 716.23 37.5795C716.662 37.2992 717.205 37.1591 717.861 37.1591C718.455 37.1591 718.976 37.2841 719.423 37.5341C719.87 37.7803 720.217 38.1477 720.463 38.6364C720.709 39.125 720.832 39.7292 720.832 40.4489V46H719.134V40.6534C719.134 40.0208 718.969 39.5265 718.639 39.1705C718.31 38.8106 717.857 38.6307 717.281 38.6307C716.887 38.6307 716.537 38.7159 716.23 38.8864C715.927 39.0568 715.687 39.3068 715.509 39.6364C715.334 39.9621 715.247 40.3561 715.247 40.8182ZM726.787 46.1761C725.969 46.1761 725.255 45.9886 724.645 45.6136C724.035 45.2386 723.562 44.714 723.224 44.0398C722.887 43.3655 722.719 42.5777 722.719 41.6761C722.719 40.7708 722.887 39.9792 723.224 39.3011C723.562 38.6231 724.035 38.0966 724.645 37.7216C725.255 37.3466 725.969 37.1591 726.787 37.1591C727.605 37.1591 728.319 37.3466 728.929 37.7216C729.539 38.0966 730.012 38.6231 730.349 39.3011C730.687 39.9792 730.855 40.7708 730.855 41.6761C730.855 42.5777 730.687 43.3655 730.349 44.0398C730.012 44.714 729.539 45.2386 728.929 45.6136C728.319 45.9886 727.605 46.1761 726.787 46.1761ZM726.793 44.75C727.323 44.75 727.762 44.6098 728.111 44.3295C728.459 44.0492 728.717 43.6761 728.884 43.2102C729.054 42.7443 729.139 42.2311 729.139 41.6705C729.139 41.1136 729.054 40.6023 728.884 40.1364C728.717 39.6667 728.459 39.2898 728.111 39.0057C727.762 38.7216 727.323 38.5795 726.793 38.5795C726.259 38.5795 725.815 38.7216 725.463 39.0057C725.115 39.2898 724.855 39.6667 724.685 40.1364C724.518 40.6023 724.435 41.1136 724.435 41.6705C724.435 42.2311 724.518 42.7443 724.685 43.2102C724.855 43.6761 725.115 44.0492 725.463 44.3295C725.815 44.6098 726.259 44.75 726.793 44.75ZM726.088 36.108L727.418 33.4886H729.207L727.446 36.108H726.088ZM739.291 39.4034L737.751 39.6761C737.687 39.4792 737.585 39.2917 737.445 39.1136C737.308 38.9356 737.123 38.7898 736.888 38.6761C736.653 38.5625 736.359 38.5057 736.007 38.5057C735.526 38.5057 735.125 38.6136 734.803 38.8295C734.481 39.0417 734.32 39.3163 734.32 39.6534C734.32 39.9451 734.428 40.1799 734.643 40.358C734.859 40.536 735.208 40.6818 735.689 40.7955L737.075 41.1136C737.878 41.2992 738.477 41.5852 738.871 41.9716C739.265 42.358 739.462 42.8598 739.462 43.4773C739.462 44 739.31 44.4659 739.007 44.875C738.708 45.2803 738.289 45.5985 737.751 45.8295C737.217 46.0606 736.598 46.1761 735.893 46.1761C734.916 46.1761 734.119 45.9678 733.501 45.5511C732.884 45.1307 732.505 44.5341 732.365 43.7614L734.007 43.5114C734.109 43.9394 734.32 44.2633 734.638 44.483C734.956 44.6989 735.371 44.8068 735.882 44.8068C736.439 44.8068 736.884 44.6913 737.217 44.4602C737.551 44.2254 737.717 43.9394 737.717 43.6023C737.717 43.3295 737.615 43.1004 737.411 42.9148C737.21 42.7292 736.901 42.589 736.484 42.4943L735.007 42.1705C734.193 41.9848 733.59 41.6894 733.2 41.2841C732.814 40.8788 732.621 40.3655 732.621 39.7443C732.621 39.2292 732.765 38.7784 733.053 38.392C733.34 38.0057 733.738 37.7045 734.246 37.4886C734.753 37.2689 735.335 37.1591 735.99 37.1591C736.933 37.1591 737.676 37.3636 738.217 37.7727C738.759 38.178 739.117 38.7216 739.291 39.4034Z" fill="#667085"/>
<path d="M1140.28 46V34.3636H1147.57V35.875H1142.03V39.4205H1147.19V40.9261H1142.03V44.4886H1147.64V46H1140.28ZM1151.48 40.8182V46H1149.78V37.2727H1151.41V38.6932H1151.52C1151.72 38.2311 1152.04 37.8598 1152.46 37.5795C1152.9 37.2992 1153.44 37.1591 1154.1 37.1591C1154.69 37.1591 1155.21 37.2841 1155.66 37.5341C1156.1 37.7803 1156.45 38.1477 1156.7 38.6364C1156.94 39.125 1157.07 39.7292 1157.07 40.4489V46H1155.37V40.6534C1155.37 40.0208 1155.2 39.5265 1154.87 39.1705C1154.54 38.8106 1154.09 38.6307 1153.52 38.6307C1153.12 38.6307 1152.77 38.7159 1152.46 38.8864C1152.16 39.0568 1151.92 39.3068 1151.74 39.6364C1151.57 39.9621 1151.48 40.3561 1151.48 40.8182ZM1163.42 37.2727V38.6364H1158.65V37.2727H1163.42ZM1159.93 35.1818H1161.63V43.4375C1161.63 43.767 1161.68 44.0152 1161.78 44.1818C1161.88 44.3447 1162 44.4564 1162.16 44.517C1162.32 44.5739 1162.49 44.6023 1162.67 44.6023C1162.81 44.6023 1162.93 44.5928 1163.03 44.5739C1163.13 44.5549 1163.21 44.5398 1163.27 44.5284L1163.58 45.9318C1163.48 45.9697 1163.34 46.0076 1163.16 46.0455C1162.98 46.0871 1162.75 46.1098 1162.48 46.1136C1162.03 46.1212 1161.61 46.0417 1161.23 45.875C1160.84 45.7083 1160.53 45.4508 1160.29 45.1023C1160.05 44.7538 1159.93 44.3163 1159.93 43.7898V35.1818ZM1165.3 46V37.2727H1166.94V38.6591H1167.03C1167.19 38.1894 1167.47 37.8201 1167.87 37.5511C1168.28 37.2784 1168.74 37.142 1169.25 37.142C1169.35 37.142 1169.48 37.1458 1169.62 37.1534C1169.77 37.161 1169.89 37.1705 1169.97 37.1818V38.8068C1169.9 38.7879 1169.78 38.767 1169.61 38.7443C1169.43 38.7178 1169.26 38.7045 1169.08 38.7045C1168.68 38.7045 1168.32 38.7898 1168.01 38.9602C1167.7 39.1269 1167.45 39.3598 1167.27 39.6591C1167.09 39.9545 1167 40.2917 1167 40.6705V46H1165.3ZM1173.9 46.1932C1173.35 46.1932 1172.85 46.0909 1172.4 45.8864C1171.95 45.678 1171.6 45.3769 1171.34 44.983C1171.08 44.589 1170.95 44.1061 1170.95 43.5341C1170.95 43.0417 1171.05 42.6364 1171.24 42.3182C1171.43 42 1171.68 41.7481 1172 41.5625C1172.32 41.3769 1172.68 41.2367 1173.08 41.142C1173.48 41.0473 1173.89 40.9754 1174.3 40.9261C1174.82 40.8655 1175.25 40.8163 1175.57 40.7784C1175.9 40.7367 1176.13 40.6705 1176.28 40.5795C1176.43 40.4886 1176.5 40.3409 1176.5 40.1364V40.0966C1176.5 39.6004 1176.36 39.2159 1176.08 38.9432C1175.81 38.6705 1175.39 38.5341 1174.84 38.5341C1174.27 38.5341 1173.82 38.661 1173.49 38.9148C1173.17 39.1648 1172.94 39.4432 1172.82 39.75L1171.22 39.3864C1171.41 38.8561 1171.68 38.428 1172.05 38.1023C1172.42 37.7727 1172.84 37.5341 1173.32 37.3864C1173.79 37.2348 1174.29 37.1591 1174.82 37.1591C1175.17 37.1591 1175.54 37.2008 1175.93 37.2841C1176.32 37.3636 1176.69 37.5114 1177.03 37.7273C1177.38 37.9432 1177.66 38.2519 1177.88 38.6534C1178.1 39.0511 1178.21 39.5682 1178.21 40.2045V46H1176.55V44.8068H1176.48C1176.37 45.0265 1176.21 45.2424 1175.99 45.4545C1175.77 45.6667 1175.48 45.8428 1175.14 45.983C1174.79 46.1231 1174.38 46.1932 1173.9 46.1932ZM1174.27 44.8295C1174.74 44.8295 1175.14 44.7367 1175.47 44.5511C1175.81 44.3655 1176.07 44.1231 1176.24 43.8239C1176.42 43.5208 1176.51 43.197 1176.51 42.8523V41.7273C1176.45 41.7879 1176.33 41.8447 1176.16 41.8977C1175.99 41.947 1175.79 41.9905 1175.57 42.0284C1175.35 42.0625 1175.14 42.0947 1174.93 42.125C1174.72 42.1515 1174.55 42.1742 1174.41 42.1932C1174.08 42.2348 1173.78 42.3049 1173.5 42.4034C1173.23 42.5019 1173.02 42.6439 1172.86 42.8295C1172.7 43.0114 1172.62 43.2538 1172.62 43.5568C1172.62 43.9773 1172.77 44.2955 1173.08 44.5114C1173.39 44.7235 1173.79 44.8295 1174.27 44.8295ZM1180.47 46V37.2727H1182.11V38.6591H1182.2C1182.36 38.1894 1182.64 37.8201 1183.04 37.5511C1183.45 37.2784 1183.91 37.142 1184.42 37.142C1184.53 37.142 1184.65 37.1458 1184.79 37.1534C1184.94 37.161 1185.06 37.1705 1185.14 37.1818V38.8068C1185.07 38.7879 1184.95 38.767 1184.78 38.7443C1184.6 38.7178 1184.43 38.7045 1184.25 38.7045C1183.85 38.7045 1183.49 38.7898 1183.18 38.9602C1182.87 39.1269 1182.62 39.3598 1182.44 39.6591C1182.26 39.9545 1182.17 40.2917 1182.17 40.6705V46H1180.47Z" fill="#667085"/>
<g filter="url(#filter0_d_0_9879)">
<rect x="1216" y="18" width="112" height="44" rx="8" fill="#8E2424"/>
<rect x="1216.5" y="18.5" width="111" height="43" rx="7.5" stroke="#8E2424"/>
<path d="M1244.94 38.1477H1243.17C1243.1 37.7689 1242.98 37.4356 1242.79 37.1477C1242.6 36.8598 1242.38 36.6155 1242.11 36.4148C1241.84 36.214 1241.54 36.0625 1241.2 35.9602C1240.88 35.858 1240.52 35.8068 1240.15 35.8068C1239.48 35.8068 1238.88 35.9754 1238.35 36.3125C1237.83 36.6496 1237.41 37.1439 1237.1 37.7955C1236.8 38.447 1236.65 39.2424 1236.65 40.1818C1236.65 41.1288 1236.8 41.928 1237.1 42.5795C1237.41 43.2311 1237.83 43.7235 1238.36 44.0568C1238.89 44.3902 1239.48 44.5568 1240.15 44.5568C1240.52 44.5568 1240.86 44.5076 1241.19 44.4091C1241.53 44.3068 1241.83 44.1572 1242.1 43.9602C1242.37 43.7633 1242.59 43.5227 1242.78 43.2386C1242.97 42.9508 1243.1 42.6212 1243.17 42.25L1244.94 42.2557C1244.85 42.8277 1244.66 43.3542 1244.39 43.8352C1244.12 44.3125 1243.78 44.7254 1243.35 45.0739C1242.93 45.4186 1242.45 45.6856 1241.91 45.875C1241.37 46.0644 1240.78 46.1591 1240.14 46.1591C1239.13 46.1591 1238.23 45.9205 1237.44 45.4432C1236.66 44.9621 1236.03 44.2746 1235.58 43.3807C1235.13 42.4867 1234.9 41.4205 1234.9 40.1818C1234.9 38.9394 1235.13 37.8731 1235.59 36.983C1236.04 36.089 1236.66 35.4034 1237.45 34.9261C1238.24 34.4451 1239.13 34.2045 1240.14 34.2045C1240.75 34.2045 1241.33 34.2936 1241.86 34.4716C1242.4 34.6458 1242.88 34.9034 1243.31 35.2443C1243.74 35.5814 1244.09 35.9943 1244.38 36.483C1244.66 36.9678 1244.84 37.5227 1244.94 38.1477ZM1249.45 46.1932C1248.89 46.1932 1248.39 46.0909 1247.95 45.8864C1247.5 45.678 1247.15 45.3769 1246.88 44.983C1246.63 44.589 1246.5 44.1061 1246.5 43.5341C1246.5 43.0417 1246.59 42.6364 1246.78 42.3182C1246.97 42 1247.23 41.7481 1247.55 41.5625C1247.87 41.3769 1248.23 41.2367 1248.63 41.142C1249.03 41.0473 1249.43 40.9754 1249.85 40.9261C1250.37 40.8655 1250.79 40.8163 1251.12 40.7784C1251.44 40.7367 1251.68 40.6705 1251.83 40.5795C1251.98 40.4886 1252.05 40.3409 1252.05 40.1364V40.0966C1252.05 39.6004 1251.91 39.2159 1251.63 38.9432C1251.35 38.6705 1250.94 38.5341 1250.39 38.5341C1249.82 38.5341 1249.37 38.661 1249.04 38.9148C1248.71 39.1648 1248.49 39.4432 1248.36 39.75L1246.77 39.3864C1246.96 38.8561 1247.23 38.428 1247.6 38.1023C1247.96 37.7727 1248.38 37.5341 1248.86 37.3864C1249.34 37.2348 1249.84 37.1591 1250.37 37.1591C1250.72 37.1591 1251.09 37.2008 1251.48 37.2841C1251.87 37.3636 1252.24 37.5114 1252.58 37.7273C1252.92 37.9432 1253.21 38.2519 1253.42 38.6534C1253.64 39.0511 1253.75 39.5682 1253.75 40.2045V46H1252.1V44.8068H1252.03C1251.92 45.0265 1251.75 45.2424 1251.53 45.4545C1251.31 45.6667 1251.03 45.8428 1250.69 45.983C1250.34 46.1231 1249.93 46.1932 1249.45 46.1932ZM1249.82 44.8295C1250.29 44.8295 1250.69 44.7367 1251.02 44.5511C1251.36 44.3655 1251.61 44.1231 1251.79 43.8239C1251.97 43.5208 1252.06 43.197 1252.06 42.8523V41.7273C1251.99 41.7879 1251.88 41.8447 1251.7 41.8977C1251.53 41.947 1251.34 41.9905 1251.12 42.0284C1250.9 42.0625 1250.68 42.0947 1250.48 42.125C1250.27 42.1515 1250.09 42.1742 1249.95 42.1932C1249.62 42.2348 1249.32 42.3049 1249.05 42.4034C1248.78 42.5019 1248.56 42.6439 1248.4 42.8295C1248.24 43.0114 1248.16 43.2538 1248.16 43.5568C1248.16 43.9773 1248.32 44.2955 1248.63 44.5114C1248.94 44.7235 1249.34 44.8295 1249.82 44.8295ZM1259.28 46.1705C1258.58 46.1705 1257.95 45.9905 1257.4 45.6307C1256.85 45.267 1256.42 44.75 1256.1 44.0795C1255.79 43.4053 1255.64 42.5966 1255.64 41.6534C1255.64 40.7102 1255.79 39.9034 1256.11 39.233C1256.43 38.5625 1256.86 38.0492 1257.41 37.6932C1257.97 37.3371 1258.59 37.1591 1259.3 37.1591C1259.84 37.1591 1260.27 37.25 1260.6 37.4318C1260.94 37.6098 1261.19 37.8182 1261.38 38.0568C1261.56 38.2955 1261.7 38.5057 1261.81 38.6875H1261.91V34.3636H1263.61V46H1261.95V44.642H1261.81C1261.7 44.8277 1261.56 45.0398 1261.36 45.2784C1261.17 45.517 1260.91 45.7254 1260.58 45.9034C1260.25 46.0814 1259.81 46.1705 1259.28 46.1705ZM1259.66 44.7216C1260.15 44.7216 1260.56 44.5928 1260.9 44.3352C1261.24 44.0739 1261.5 43.7121 1261.67 43.25C1261.85 42.7879 1261.94 42.25 1261.94 41.6364C1261.94 41.0303 1261.85 40.5 1261.68 40.0455C1261.5 39.5909 1261.25 39.2367 1260.91 38.983C1260.57 38.7292 1260.16 38.6023 1259.66 38.6023C1259.15 38.6023 1258.72 38.7348 1258.38 39C1258.04 39.2652 1257.78 39.6269 1257.61 40.0852C1257.44 40.5436 1257.35 41.0606 1257.35 41.6364C1257.35 42.2197 1257.44 42.7443 1257.61 43.2102C1257.79 43.6761 1258.05 44.0455 1258.39 44.3182C1258.73 44.5871 1259.16 44.7216 1259.66 44.7216ZM1268.57 46.1932C1268.02 46.1932 1267.52 46.0909 1267.07 45.8864C1266.63 45.678 1266.27 45.3769 1266.01 44.983C1265.75 44.589 1265.62 44.1061 1265.62 43.5341C1265.62 43.0417 1265.72 42.6364 1265.91 42.3182C1266.1 42 1266.35 41.7481 1266.67 41.5625C1267 41.3769 1267.36 41.2367 1267.75 41.142C1268.15 41.0473 1268.56 40.9754 1268.97 40.9261C1269.49 40.8655 1269.92 40.8163 1270.24 40.7784C1270.57 40.7367 1270.81 40.6705 1270.95 40.5795C1271.1 40.4886 1271.17 40.3409 1271.17 40.1364V40.0966C1271.17 39.6004 1271.03 39.2159 1270.75 38.9432C1270.48 38.6705 1270.06 38.5341 1269.52 38.5341C1268.94 38.5341 1268.49 38.661 1268.16 38.9148C1267.84 39.1648 1267.61 39.4432 1267.49 39.75L1265.89 39.3864C1266.08 38.8561 1266.36 38.428 1266.72 38.1023C1267.09 37.7727 1267.51 37.5341 1267.99 37.3864C1268.46 37.2348 1268.97 37.1591 1269.49 37.1591C1269.84 37.1591 1270.21 37.2008 1270.6 37.2841C1270.99 37.3636 1271.36 37.5114 1271.7 37.7273C1272.05 37.9432 1272.33 38.2519 1272.55 38.6534C1272.77 39.0511 1272.88 39.5682 1272.88 40.2045V46H1271.22V44.8068H1271.15C1271.04 45.0265 1270.88 45.2424 1270.66 45.4545C1270.44 45.6667 1270.16 45.8428 1269.81 45.983C1269.47 46.1231 1269.05 46.1932 1268.57 46.1932ZM1268.94 44.8295C1269.41 44.8295 1269.81 44.7367 1270.15 44.5511C1270.48 44.3655 1270.74 44.1231 1270.91 43.8239C1271.09 43.5208 1271.18 43.197 1271.18 42.8523V41.7273C1271.12 41.7879 1271 41.8447 1270.83 41.8977C1270.66 41.947 1270.46 41.9905 1270.24 42.0284C1270.02 42.0625 1269.81 42.0947 1269.6 42.125C1269.39 42.1515 1269.22 42.1742 1269.08 42.1932C1268.75 42.2348 1268.45 42.3049 1268.17 42.4034C1267.91 42.5019 1267.69 42.6439 1267.53 42.8295C1267.37 43.0114 1267.29 43.2538 1267.29 43.5568C1267.29 43.9773 1267.44 44.2955 1267.75 44.5114C1268.06 44.7235 1268.46 44.8295 1268.94 44.8295ZM1281.68 39.4034L1280.14 39.6761C1280.08 39.4792 1279.98 39.2917 1279.84 39.1136C1279.7 38.9356 1279.51 38.7898 1279.28 38.6761C1279.04 38.5625 1278.75 38.5057 1278.4 38.5057C1277.92 38.5057 1277.52 38.6136 1277.19 38.8295C1276.87 39.0417 1276.71 39.3163 1276.71 39.6534C1276.71 39.9451 1276.82 40.1799 1277.03 40.358C1277.25 40.536 1277.6 40.6818 1278.08 40.7955L1279.47 41.1136C1280.27 41.2992 1280.87 41.5852 1281.26 41.9716C1281.66 42.358 1281.85 42.8598 1281.85 43.4773C1281.85 44 1281.7 44.4659 1281.4 44.875C1281.1 45.2803 1280.68 45.5985 1280.14 45.8295C1279.61 46.0606 1278.99 46.1761 1278.28 46.1761C1277.31 46.1761 1276.51 45.9678 1275.89 45.5511C1275.27 45.1307 1274.9 44.5341 1274.76 43.7614L1276.4 43.5114C1276.5 43.9394 1276.71 44.2633 1277.03 44.483C1277.35 44.6989 1277.76 44.8068 1278.27 44.8068C1278.83 44.8068 1279.27 44.6913 1279.61 44.4602C1279.94 44.2254 1280.11 43.9394 1280.11 43.6023C1280.11 43.3295 1280.01 43.1004 1279.8 42.9148C1279.6 42.7292 1279.29 42.589 1278.88 42.4943L1277.4 42.1705C1276.58 41.9848 1275.98 41.6894 1275.59 41.2841C1275.2 40.8788 1275.01 40.3655 1275.01 39.7443C1275.01 39.2292 1275.16 38.7784 1275.44 38.392C1275.73 38.0057 1276.13 37.7045 1276.64 37.4886C1277.14 37.2689 1277.73 37.1591 1278.38 37.1591C1279.32 37.1591 1280.07 37.3636 1280.61 37.7727C1281.15 38.178 1281.51 38.7216 1281.68 39.4034ZM1287.79 37.2727V38.6364H1283.03V37.2727H1287.79ZM1284.31 35.1818H1286V43.4375C1286 43.767 1286.05 44.0152 1286.15 44.1818C1286.25 44.3447 1286.38 44.4564 1286.53 44.517C1286.69 44.5739 1286.86 44.6023 1287.05 44.6023C1287.19 44.6023 1287.31 44.5928 1287.41 44.5739C1287.51 44.5549 1287.59 44.5398 1287.65 44.5284L1287.95 45.9318C1287.85 45.9697 1287.71 46.0076 1287.53 46.0455C1287.35 46.0871 1287.12 46.1098 1286.85 46.1136C1286.4 46.1212 1285.99 46.0417 1285.6 45.875C1285.21 45.7083 1284.9 45.4508 1284.66 45.1023C1284.42 44.7538 1284.31 44.3163 1284.31 43.7898V35.1818ZM1289.67 46V37.2727H1291.32V38.6591H1291.41C1291.57 38.1894 1291.85 37.8201 1292.25 37.5511C1292.65 37.2784 1293.11 37.142 1293.62 37.142C1293.73 37.142 1293.85 37.1458 1294 37.1534C1294.14 37.161 1294.26 37.1705 1294.34 37.1818V38.8068C1294.28 38.7879 1294.15 38.767 1293.98 38.7443C1293.81 38.7178 1293.63 38.7045 1293.46 38.7045C1293.06 38.7045 1292.7 38.7898 1292.38 38.9602C1292.07 39.1269 1291.83 39.3598 1291.64 39.6591C1291.46 39.9545 1291.37 40.2917 1291.37 40.6705V46H1289.67ZM1298.28 46.1932C1297.72 46.1932 1297.22 46.0909 1296.78 45.8864C1296.33 45.678 1295.97 45.3769 1295.71 44.983C1295.46 44.589 1295.33 44.1061 1295.33 43.5341C1295.33 43.0417 1295.42 42.6364 1295.61 42.3182C1295.8 42 1296.06 41.7481 1296.38 41.5625C1296.7 41.3769 1297.06 41.2367 1297.46 41.142C1297.86 41.0473 1298.26 40.9754 1298.67 40.9261C1299.2 40.8655 1299.62 40.8163 1299.95 40.7784C1300.27 40.7367 1300.51 40.6705 1300.66 40.5795C1300.8 40.4886 1300.88 40.3409 1300.88 40.1364V40.0966C1300.88 39.6004 1300.74 39.2159 1300.46 38.9432C1300.18 38.6705 1299.77 38.5341 1299.22 38.5341C1298.65 38.5341 1298.2 38.661 1297.87 38.9148C1297.54 39.1648 1297.32 39.4432 1297.19 39.75L1295.59 39.3864C1295.78 38.8561 1296.06 38.428 1296.42 38.1023C1296.79 37.7727 1297.21 37.5341 1297.69 37.3864C1298.17 37.2348 1298.67 37.1591 1299.2 37.1591C1299.54 37.1591 1299.91 37.2008 1300.3 37.2841C1300.7 37.3636 1301.07 37.5114 1301.41 37.7273C1301.75 37.9432 1302.03 38.2519 1302.25 38.6534C1302.47 39.0511 1302.58 39.5682 1302.58 40.2045V46H1300.92V44.8068H1300.86C1300.75 45.0265 1300.58 45.2424 1300.36 45.4545C1300.14 45.6667 1299.86 45.8428 1299.51 45.983C1299.17 46.1231 1298.76 46.1932 1298.28 46.1932ZM1298.64 44.8295C1299.11 44.8295 1299.52 44.7367 1299.85 44.5511C1300.19 44.3655 1300.44 44.1231 1300.62 43.8239C1300.79 43.5208 1300.88 43.197 1300.88 42.8523V41.7273C1300.82 41.7879 1300.71 41.8447 1300.53 41.8977C1300.36 41.947 1300.17 41.9905 1299.95 42.0284C1299.73 42.0625 1299.51 42.0947 1299.3 42.125C1299.1 42.1515 1298.92 42.1742 1298.78 42.1932C1298.45 42.2348 1298.15 42.3049 1297.88 42.4034C1297.61 42.5019 1297.39 42.6439 1297.23 42.8295C1297.07 43.0114 1296.99 43.2538 1296.99 43.5568C1296.99 43.9773 1297.15 44.2955 1297.46 44.5114C1297.77 44.7235 1298.16 44.8295 1298.64 44.8295ZM1304.85 46V37.2727H1306.49V38.6591H1306.58C1306.74 38.1894 1307.02 37.8201 1307.42 37.5511C1307.82 37.2784 1308.28 37.142 1308.79 37.142C1308.9 37.142 1309.03 37.1458 1309.17 37.1534C1309.32 37.161 1309.43 37.1705 1309.52 37.1818V38.8068C1309.45 38.7879 1309.33 38.767 1309.15 38.7443C1308.98 38.7178 1308.8 38.7045 1308.63 38.7045C1308.23 38.7045 1307.87 38.7898 1307.56 38.9602C1307.24 39.1269 1307 39.3598 1306.82 39.6591C1306.63 39.9545 1306.54 40.2917 1306.54 40.6705V46H1304.85Z" fill="white"/>
</g>
<defs>
<filter id="filter0_d_0_9879" x="1214" y="17" width="116" height="48" filterUnits="userSpaceOnUse" color-interpolation-filters="sRGB">
<feFlood flood-opacity="0" result="BackgroundImageFix"/>
<feColorMatrix in="SourceAlpha" type="matrix" values="0 0 0 0 0 0 0 0 0 0 0 0 0 0 0 0 0 0 127 0" result="hardAlpha"/>
<feOffset dy="1"/>
<feGaussianBlur stdDeviation="1"/>
<feColorMatrix type="matrix" values="0 0 0 0 0.0627451 0 0 0 0 0.0941176 0 0 0 0 0.156863 0 0 0 0.05 0"/>
<feBlend mode="normal" in2="BackgroundImageFix" result="effect1_dropShadow_0_9879"/>
<feBlend mode="normal" in="SourceGraphic" in2="effect1_dropShadow_0_9879" result="shape"/>
</filter>
</defs>
</svg>
